<?xml version="1.0" encoding="UTF-8"?>
<!DOCTYPE svg PUBLIC "-//W3C//DTD SVG 1.1//EN" "http://www.w3.org/Graphics/SVG/1.1/DTD/svg11.dtd">
<svg xmlns="http://www.w3.org/2000/svg" version="1.1" width="213px" height="213px" style="shape-rendering:geometricPrecision; text-rendering:geometricPrecision; image-rendering:optimizeQuality; fill-rule:evenodd; clip-rule:evenodd" xmlns:xlink="http://www.w3.org/1999/xlink">
<g><path style="opacity:1" fill="#fdfdfe" d="M -0.5,-0.5 C 70.5,-0.5 141.5,-0.5 212.5,-0.5C 212.5,70.5 212.5,141.5 212.5,212.5C 141.5,212.5 70.5,212.5 -0.5,212.5C -0.5,141.5 -0.5,70.5 -0.5,-0.5 Z"/></g>
<g><path style="opacity:1" fill="#2a8db7" d="M 154.5,6.5 C 155.251,5.42654 156.251,5.25988 157.5,6C 156.648,7.72835 155.648,7.89502 154.5,6.5 Z"/></g>
<g><path style="opacity:1" fill="#328fb8" d="M 147.5,58.5 C 149.933,57.4523 149.933,56.7856 147.5,56.5C 148.048,53.9162 149.715,52.9162 152.5,53.5C 153.313,54.6527 154.313,54.6527 155.5,53.5C 155.833,54 156.167,54.5 156.5,55C 155.576,56.15 155.576,57.15 156.5,58C 154.009,58.6259 154.009,59.4593 156.5,60.5C 154.615,61.1973 154.282,62.1973 155.5,63.5C 154.358,65.3785 153.358,67.2118 152.5,69C 152.833,69.3333 153.167,69.6667 153.5,70C 149.971,71.4657 146.305,72.4657 142.5,73C 140.382,74.0491 138.716,75.5491 137.5,77.5C 138.5,77.5 139.5,77.5 140.5,77.5C 140.67,78.8221 140.337,79.9887 139.5,81C 140.833,81.3333 142.167,81.6667 143.5,82C 142.748,82.6708 142.414,83.5041 142.5,84.5C 142.672,85.4916 142.338,86.1583 141.5,86.5C 140.883,86.3893 140.383,86.056 140,85.5C 139.333,87.5 138,88.8333 136,89.5C 135.667,87.1667 135.333,84.8333 135,82.5C 134.667,84.1667 134.333,85.8333 134,87.5C 131.591,84.8325 130.424,84.9992 130.5,88C 134.272,89.3893 134.272,90.3893 130.5,91C 132.421,92.0309 132.421,93.5309 130.5,95.5C 129.719,94.2713 129.219,92.938 129,91.5C 128.333,92.8333 127.667,92.8333 127,91.5C 126.667,92.1667 126.333,92.8333 126,93.5C 125.057,90.7493 124.224,88.0826 123.5,85.5C 122.883,83.3198 121.883,81.3198 120.5,79.5C 121.96,76.7116 121.293,74.5449 118.5,73C 119.833,72 119.833,71 118.5,70C 119.549,69.5078 120.549,69.6744 121.5,70.5C 121.94,69.302 122.273,68.1353 122.5,67C 121.167,66.6667 119.833,66.3333 118.5,66C 119.458,64.8525 119.125,63.8525 117.5,63C 117.265,60.6065 117.765,58.1065 119,55.5C 119.811,56.9597 120.645,57.293 121.5,56.5C 118.619,53.4167 117.786,50.0834 119,46.5C 119.667,49.1667 120.333,49.1667 121,46.5C 121.667,43.8333 121.667,41.1667 121,38.5C 120.331,41.0278 119.498,41.0278 118.5,38.5C 119.189,36.556 119.689,34.556 120,32.5C 120.333,33.8333 120.667,35.1667 121,36.5C 122.649,24.513 129.149,16.3464 140.5,12C 142.728,11.1799 144.728,11.5132 146.5,13C 139.896,24.436 138.563,36.436 142.5,49C 142.372,52.6731 141.372,56.0064 139.5,59C 140.667,61.5 141.833,64 143,66.5C 145.717,64.5135 147.217,61.8468 147.5,58.5 Z"/></g>
<g><path style="opacity:1" fill="#2a8db7" d="M 102.5,14.5 C 102.783,13.7109 103.283,13.0442 104,12.5C 104.528,13.816 104.028,14.4827 102.5,14.5 Z"/></g>
<g><path style="opacity:1" fill="#2a8db7" d="M 102.5,14.5 C 102.229,16.8211 102.896,18.8211 104.5,20.5C 99.9817,24.101 98.4817,23.101 100,17.5C 100.377,16.0577 101.21,15.0577 102.5,14.5 Z"/></g>
<g><path style="opacity:1" fill="#2a8db7" d="M 105.5,30.5 C 103.863,28.0767 103.363,25.41 104,22.5C 105.113,23.7604 105.28,24.927 104.5,26C 105.759,26.9234 107.092,27.7568 108.5,28.5C 107.995,29.9185 106.995,30.5852 105.5,30.5 Z"/></g>
<g><path style="opacity:1" fill="#2a8db7" d="M 105.5,30.5 C 105.833,31.1667 106.167,31.8333 106.5,32.5C 104.576,32.2893 104.243,31.6226 105.5,30.5 Z"/></g>
<g><path style="opacity:1" fill="#2a8db7" d="M 106.5,32.5 C 108.284,33.5738 109.451,35.2404 110,37.5C 110.914,36.3463 111.747,36.513 112.5,38C 111.075,39.7141 111.408,41.0475 113.5,42C 111.519,42.6054 111.185,43.6054 112.5,45C 112,45.5 111.5,46 111,46.5C 110.365,45.0337 109.531,43.7003 108.5,42.5C 109.326,41.549 109.492,40.549 109,39.5C 108.333,38.1667 107.667,38.1667 107,39.5C 106.856,36.9752 106.69,34.6419 106.5,32.5 Z"/></g>
<g><path style="opacity:1" fill="#2c8db7" d="M 77.5,169.5 C 79.5839,174.834 80.7505,174.834 81,169.5C 82.4813,170.471 83.3146,171.804 83.5,173.5C 82.0686,175.437 80.4019,177.27 78.5,179C 81.574,184.743 85.7407,189.576 91,193.5C 91.3333,192.5 91.6667,191.5 92,190.5C 92.6667,192.5 93.3333,194.5 94,196.5C 98.9342,198.463 102.601,201.796 105,206.5C 105.547,201.266 106.38,201.266 107.5,206.5C 106.975,207.192 106.308,207.692 105.5,208C 97.8053,208.691 90.1387,208.525 82.5,207.5C 82.2108,203.894 82.5442,200.394 83.5,197C 81.2568,189.684 78.0901,182.85 74,176.5C 71.2015,175.862 68.5349,176.529 66,178.5C 64.4494,181.868 63.2827,185.368 62.5,189C 61.8749,192.806 62.5416,196.472 64.5,200C 63.9747,200.692 63.3081,201.192 62.5,201.5C 35.0536,189.352 18.5536,168.352 13,138.5C 9.10009,88.7523 30.9334,56.5856 78.5,42C 82.8321,41.4167 87.1654,40.9167 91.5,40.5C 93.8064,55.088 94.9731,69.7547 95,84.5C 94.2935,86.0806 93.4601,87.5806 92.5,89C 85.4906,91.3521 78.4906,93.6854 71.5,96C 68.5279,97.7595 65.8613,99.9261 63.5,102.5C 61.4706,101.371 61.1373,101.871 62.5,104C 59.6435,107.39 57.3102,111.057 55.5,115C 55.9574,115.414 56.2907,115.914 56.5,116.5C 52.2469,124.427 49.0802,132.76 47,141.5C 46.0604,143.821 44.5604,145.988 42.5,148C 44.0586,150.642 43.7253,152.975 41.5,155C 43.0001,161.138 46.1668,166.305 51,170.5C 52.5252,170.112 54.1918,170.112 56,170.5C 56,169.167 56,167.833 56,166.5C 61.2492,171.057 66.9158,172.39 73,170.5C 73.6667,173.167 74.3333,173.167 75,170.5C 75.8817,174.042 76.715,173.708 77.5,169.5 Z"/></g>
<g><path style="opacity:1" fill="#2a8db7" d="M 118.5,42.5 C 120.76,43.2376 120.927,44.2376 119,45.5C 118.517,44.552 118.351,43.552 118.5,42.5 Z"/></g>
<g><path style="opacity:1" fill="#3e93bb" d="M 151.5,44.5 C 153.179,44.8923 154.846,45.3923 156.5,46C 154.114,49.194 152.448,48.694 151.5,44.5 Z"/></g>
<g><path style="opacity:1" fill="#2a8db7" d="M 152.5,53.5 C 151.737,52.7321 150.737,52.2321 149.5,52C 151.167,51.1667 152.833,50.3333 154.5,49.5C 155.308,49.8076 155.975,50.3076 156.5,51C 154.843,51.2315 153.509,52.0648 152.5,53.5 Z"/></g>
<g><path style="opacity:1" fill="#2a8db7" d="M 109.5,51.5 C 112.001,51.5109 112.168,52.1776 110,53.5C 109.536,52.9056 109.369,52.2389 109.5,51.5 Z"/></g>
<g><path style="opacity:1" fill="#2a8db7" d="M 161.5,51.5 C 162.782,52.7082 162.782,54.0416 161.5,55.5C 161.094,54.4425 161.094,53.1092 161.5,51.5 Z"/></g>
<g><path style="opacity:1" fill="#fefffe" d="M 147.5,56.5 C 149.933,56.7856 149.933,57.4523 147.5,58.5C 147.5,57.8333 147.5,57.1667 147.5,56.5 Z"/></g>
<g><path style="opacity:1" fill="#fefffe" d="M 120.5,61.5 C 121.376,61.3691 122.043,61.7025 122.5,62.5C 121.897,63.6348 121.564,64.6348 121.5,65.5C 119.824,64.2724 119.491,62.9391 120.5,61.5 Z"/></g>
<g><path style="opacity:1" fill="#2a8db7" d="M 157.5,67.5 C 157.343,66.1266 157.51,64.7932 158,63.5C 159.534,64.8805 159.368,66.2139 157.5,67.5 Z"/></g>
<g><path style="opacity:1" fill="#2a8db7" d="M 157.5,67.5 C 177.446,89.2812 184.279,114.615 178,143.5C 172.715,140.245 167.049,138.912 161,139.5C 160,138.833 159,138.167 158,137.5C 155.177,138.367 152.177,138.701 149,138.5C 147.313,136.832 147.146,134.999 148.5,133C 146.823,125.11 144.156,117.61 140.5,110.5C 142.927,104.208 142.927,97.8745 140.5,91.5C 141.025,90.8076 141.692,90.3076 142.5,90C 141.663,88.9887 141.33,87.8221 141.5,86.5C 142.338,86.1583 142.672,85.4916 142.5,84.5C 146.777,82.8016 150.61,79.8016 154,75.5C 155.47,72.8895 156.636,70.2228 157.5,67.5 Z"/></g>
<g><path style="opacity:1" fill="#fefffe" d="M 137.5,77.5 C 137.013,78.4734 136.513,79.4734 136,80.5C 135.275,78.8425 135.775,77.8425 137.5,77.5 Z"/></g>
<g><path style="opacity:1" fill="#fefffe" d="M 132.5,79.5 C 133.773,80.0768 133.773,80.7435 132.5,81.5C 131.537,81.0302 131.537,80.3635 132.5,79.5 Z"/></g>
<g><path style="opacity:1" fill="#4194bb" d="M 123.5,85.5 C 123.819,87.7505 123.319,89.7505 122,91.5C 119.944,88.8386 120.444,86.8386 123.5,85.5 Z"/></g>
<g><path style="opacity:1" fill="#2a8db7" d="M 119.5,93.5 C 120.251,92.4265 121.251,92.2599 122.5,93C 121.773,94.3988 121.273,95.8988 121,97.5C 119.772,96.0028 119.272,94.6694 119.5,93.5 Z"/></g>
<g><path style="opacity:1" fill="#2a8db7" d="M 110.5,102.5 C 111.486,98.3493 113.82,97.516 117.5,100C 115.183,100.124 112.849,100.957 110.5,102.5 Z"/></g>
<g><path style="opacity:1" fill="#2a8db7" d="M 110.5,102.5 C 108.461,103.578 106.294,104.578 104,105.5C 103.626,104.584 103.126,103.75 102.5,103C 104.961,102.971 107.628,102.804 110.5,102.5 Z"/></g>
<g><path style="opacity:1" fill="#2a8db7" d="M 133.5,105.5 C 132.737,104.732 131.737,104.232 130.5,104C 131.5,103.5 132.5,103 133.5,102.5C 134.776,103.614 134.776,104.614 133.5,105.5 Z"/></g>
<g><path style="opacity:1" fill="#4294bc" d="M 133.5,105.5 C 133.741,108.034 132.741,109.7 130.5,110.5C 129.227,107.729 130.227,106.062 133.5,105.5 Z"/></g>
<g><path style="opacity:1" fill="#2a8db7" d="M 92.5,106.5 C 93.2674,107.172 93.9341,108.005 94.5,109C 92.2729,109.121 90.4396,109.954 89,111.5C 88.5172,110.552 88.3505,109.552 88.5,108.5C 90.3797,108.771 91.713,108.104 92.5,106.5 Z"/></g>
<g><path style="opacity:1" fill="#2a8db7" d="M 130.5,110.5 C 129.614,111.776 128.614,111.776 127.5,110.5C 128.233,109.913 129.233,109.913 130.5,110.5 Z"/></g>
<g><path style="opacity:1" fill="#2a8db7" d="M 121.5,110.5 C 122.773,111.077 122.773,111.743 121.5,112.5C 120.537,112.03 120.537,111.363 121.5,110.5 Z"/></g>
<g><path style="opacity:1" fill="#4f99bf" d="M 134.5,110.5 C 135.478,110.811 136.145,111.478 136.5,112.5C 134.432,116.921 131.765,117.421 128.5,114C 131.345,113.992 133.345,112.825 134.5,110.5 Z"/></g>
<g><path style="opacity:1" fill="#2a8db7" d="M 76.5,114.5 C 79.0009,114.511 79.1676,115.178 77,116.5C 76.5357,115.906 76.369,115.239 76.5,114.5 Z"/></g>
<g><path style="opacity:1" fill="#2a8db7" d="M 102.5,119.5 C 102.5,119.833 102.5,120.167 102.5,120.5C 101.967,123.122 100.967,125.622 99.5,128C 100.738,127.923 101.738,128.089 102.5,128.5C 101.24,129.382 100.074,130.382 99,131.5C 94.0671,130.176 89.2337,130.176 84.5,131.5C 82.8058,132.686 81.1392,132.519 79.5,131C 81.2538,126.216 82.7538,121.383 84,116.5C 85.6092,117.15 87.1092,116.65 88.5,115C 90.8333,114.333 93.1667,114.333 95.5,115C 97.7343,116.75 100.068,118.25 102.5,119.5 Z"/></g>
<g><path style="opacity:1" fill="#4d99bf" d="M 102.5,120.5 C 102.5,120.167 102.5,119.833 102.5,119.5C 103.953,118.175 103.619,117.342 101.5,117C 102,116.5 102.5,116 103,115.5C 106.179,116.171 108.679,117.171 110.5,118.5C 108.35,121.521 105.684,122.188 102.5,120.5 Z"/></g>
<g><path style="opacity:1" fill="#fefffe" d="M 86.5,117.5 C 89.0118,118.216 89.0118,119.216 86.5,120.5C 85.4376,119.575 85.4376,118.575 86.5,117.5 Z"/></g>
<g><path style="opacity:1" fill="#2a8db7" d="M 74.5,123.5 C 75.782,124.708 75.782,126.042 74.5,127.5C 73.3744,126.192 73.3744,124.858 74.5,123.5 Z"/></g>
<g><path style="opacity:1" fill="#4194bb" d="M 109.5,129.5 C 113.206,131.665 113.206,133.665 109.5,135.5C 107.444,133.981 105.11,133.147 102.5,133C 104.081,132.293 105.581,131.46 107,130.5C 108.159,131.566 108.992,131.233 109.5,129.5 Z"/></g>
<g><path style="opacity:1" fill="#2a8db7" d="M 84.5,131.5 C 90.2275,131.847 95.8942,132.681 101.5,134C 97.0639,134.581 92.7306,134.081 88.5,132.5C 86.5952,133.065 84.9285,134.065 83.5,135.5C 83.1667,135.333 82.8333,135.167 82.5,135C 83.8228,134.184 84.4894,133.017 84.5,131.5 Z"/></g>
<g><path style="opacity:1" fill="#2a8db7" d="M 80.5,137.5 C 80.6964,135.354 81.6964,135.188 83.5,137C 82.552,137.483 81.552,137.649 80.5,137.5 Z"/></g>
<g><path style="opacity:1" fill="#2a8db7" d="M 108.5,136.5 C 111.137,138.154 110.803,138.654 107.5,138C 108.056,137.617 108.389,137.117 108.5,136.5 Z"/></g>
<g><path style="opacity:1" fill="#2a8db7" d="M 80.5,137.5 C 83.0983,138.472 83.0983,139.472 80.5,140.5C 76.5822,139.525 76.5822,138.525 80.5,137.5 Z"/></g>
<g><path style="opacity:1" fill="#2a8db7" d="M 72.5,139.5 C 76.2434,139.459 76.4101,140.126 73,141.5C 72.5357,140.906 72.369,140.239 72.5,139.5 Z"/></g>
<g><path style="opacity:1" fill="#3f93bb" d="M 80.5,140.5 C 81.6002,141.558 82.9336,142.392 84.5,143C 82.6992,143.317 82.3659,143.984 83.5,145C 81.1913,145.756 79.1913,145.256 77.5,143.5C 76.1054,144.815 75.1054,144.481 74.5,142.5C 75.7757,141.355 77.109,141.355 78.5,142.5C 79.1818,141.757 79.8485,141.091 80.5,140.5 Z"/></g>
<g><path style="opacity:1" fill="#2a8db7" d="M 65.5,142.5 C 65.56,141.957 65.8933,141.624 66.5,141.5C 68.7759,142.213 71.1093,142.713 73.5,143C 71.7824,144.037 69.949,144.537 68,144.5C 67.2917,143.619 66.4584,142.953 65.5,142.5 Z"/></g>
<g><path style="opacity:1" fill="#2a8db7" d="M 103.5,141.5 C 105.656,141.872 105.656,142.872 103.5,144.5C 102.913,143.767 102.913,142.767 103.5,141.5 Z"/></g>
<g><path style="opacity:1" fill="#4294bc" d="M 96.5,142.5 C 101.341,143.292 101.508,144.292 97,145.5C 95.5,145 94,144.5 92.5,144C 94.0581,143.79 95.3915,143.29 96.5,142.5 Z"/></g>
<g><path style="opacity:1" fill="#4696bc" d="M 57.5,150.5 C 57.6716,149.508 57.3382,148.842 56.5,148.5C 57.9526,147.175 57.6192,146.342 55.5,146C 57.7801,145.788 59.7801,144.955 61.5,143.5C 62.7321,144.145 64.0654,144.311 65.5,144C 64.5399,145.419 63.7065,146.919 63,148.5C 62.6667,148.167 62.3333,147.833 62,147.5C 60.871,149.141 59.371,150.141 57.5,150.5 Z"/></g>
<g><path style="opacity:1" fill="#2a8db7" d="M 84.5,145.5 C 88.4989,145.091 92.1656,145.925 95.5,148C 91.3328,150.062 87.3328,149.729 83.5,147C 84.056,146.617 84.3893,146.117 84.5,145.5 Z"/></g>
<g><path style="opacity:1" fill="#2a8db7" d="M 164.5,148.5 C 164.735,147.903 165.235,147.57 166,147.5C 169.583,148.058 173.083,148.891 176.5,150C 172.288,151.788 168.288,151.288 164.5,148.5 Z"/></g>
<g><path style="opacity:1" fill="#2a8db7" d="M 56.5,148.5 C 56.1667,149.167 55.8333,149.833 55.5,150.5C 54.2426,149.377 54.5759,148.711 56.5,148.5 Z"/></g>
<g><path style="opacity:1" fill="#fefffe" d="M 56.5,148.5 C 57.3382,148.842 57.6716,149.508 57.5,150.5C 56.8333,150.5 56.1667,150.5 55.5,150.5C 55.8333,149.833 56.1667,149.167 56.5,148.5 Z"/></g>
<g><path style="opacity:1" fill="#2a8db7" d="M 55.5,150.5 C 56.1667,150.5 56.8333,150.5 57.5,150.5C 56.4884,151.872 55.4884,153.205 54.5,154.5C 54.4326,153.041 54.7659,151.708 55.5,150.5 Z"/></g>
<g><path style="opacity:1" fill="#2a8db7" d="M 84.5,155.5 C 82.146,155.162 79.8127,154.662 77.5,154C 79.797,152.84 79.4637,151.84 76.5,151C 79.8214,151.165 82.4881,152.665 84.5,155.5 Z"/></g>
<g><path style="opacity:1" fill="#2a8db7" d="M 119.5,153.5 C 119.047,152.542 118.381,151.708 117.5,151C 120.021,150.671 120.688,151.504 119.5,153.5 Z"/></g>
<g><path style="opacity:1" fill="#2a8db7" d="M 61.5,152.5 C 62.0768,151.227 62.7435,151.227 63.5,152.5C 63.0302,153.463 62.3635,153.463 61.5,152.5 Z"/></g>
<g><path style="opacity:1" fill="#318fb8" d="M 119.5,153.5 C 121.289,155.007 123.289,156.34 125.5,157.5C 128.308,156.03 131.308,155.197 134.5,155C 133.72,153.927 133.887,152.76 135,151.5C 136.171,152.893 137.671,153.727 139.5,154C 136.962,156.359 137.629,157.859 141.5,158.5C 141.333,158.833 141.167,159.167 141,159.5C 133.985,166.202 126.652,170.869 119,173.5C 117.406,174.716 115.906,176.049 114.5,177.5C 113.914,177.291 113.414,176.957 113,176.5C 110.561,179.059 107.895,181.392 105,183.5C 104.667,184.5 104.333,185.5 104,186.5C 103,185.167 102,185.167 101,186.5C 99.5736,184.234 97.7402,182.568 95.5,181.5C 95.7373,180.209 95.404,179.209 94.5,178.5C 94.6068,180.379 94.1068,180.712 93,179.5C 91.0731,180.762 91.2398,181.762 93.5,182.5C 92.6136,183.776 91.6136,183.776 90.5,182.5C 88.0619,180.51 86.3953,178.51 85.5,176.5C 88.386,176.3 90.886,175.3 93,173.5C 94.0875,175.932 94.5875,175.598 94.5,172.5C 92.5328,172.261 90.6995,172.594 89,173.5C 86.6278,171.297 84.4611,168.963 82.5,166.5C 83.1667,166.167 83.8333,165.833 84.5,165.5C 85.0778,166.547 85.7445,166.38 86.5,165C 86.453,162.705 85.1196,160.871 82.5,159.5C 81.7025,159.957 81.3691,160.624 81.5,161.5C 80.6364,160.312 79.6364,159.145 78.5,158C 79.448,157.517 80.448,157.351 81.5,157.5C 82.531,158.249 83.6976,158.915 85,159.5C 85.4643,158.906 85.631,158.239 85.5,157.5C 86.7899,158.058 87.6232,159.058 88,160.5C 89.016,159.366 89.6827,159.699 90,161.5C 90.3333,160.833 90.6667,160.167 91,159.5C 92.5298,160.636 93.8631,161.636 95,162.5C 96.487,161.747 96.6537,160.914 95.5,160C 97.1911,158.595 99.0245,157.428 101,156.5C 103.173,159.277 103.673,159.11 102.5,156C 103.5,155 104.5,154 105.5,153C 106.784,152.316 107.951,152.483 109,153.5C 109.333,152.833 109.667,152.167 110,151.5C 111.395,152.43 112.895,152.43 114.5,151.5C 116.177,152.187 117.844,152.854 119.5,153.5 Z"/></g>
<g><path style="opacity:1" fill="#2a8db7" d="M 64.5,154.5 C 65.531,153.751 66.6976,153.085 68,152.5C 68.1667,152.833 68.3333,153.167 68.5,153.5C 67.3112,154.429 65.9778,154.762 64.5,154.5 Z"/></g>
<g><path style="opacity:1" fill="#3d92ba" d="M 54.5,154.5 C 56.2321,159.268 54.5655,161.768 49.5,162C 45.6347,158.162 46.468,155.328 52,153.5C 52.9021,153.743 53.7354,154.077 54.5,154.5 Z"/></g>
<g><path style="opacity:1" fill="#2a8db7" d="M 64.5,154.5 C 64.1575,156.225 63.1575,156.725 61.5,156C 62.5266,155.487 63.5266,154.987 64.5,154.5 Z"/></g>
<g><path style="opacity:1" fill="#2a8db7" d="M 84.5,155.5 C 87.925,155.367 88.2583,156.033 85.5,157.5C 84.1667,157.5 82.8333,157.5 81.5,157.5C 82.5,156.833 83.5,156.167 84.5,155.5 Z"/></g>
<g><path style="opacity:1" fill="#2a8db7" d="M 88.5,157.5 C 89.7211,156.535 91.0544,156.702 92.5,158C 91.0715,158.579 89.7382,158.412 88.5,157.5 Z"/></g>
<g><path style="opacity:1" fill="#fefffe" d="M 81.5,157.5 C 82.8333,157.5 84.1667,157.5 85.5,157.5C 85.631,158.239 85.4643,158.906 85,159.5C 83.6976,158.915 82.531,158.249 81.5,157.5 Z"/></g>
<g><path style="opacity:1" fill="#bad3e4" d="M 84.5,165.5 C 83.5,164.167 82.5,162.833 81.5,161.5C 81.3691,160.624 81.7025,159.957 82.5,159.5C 85.1196,160.871 86.453,162.705 86.5,165C 85.7445,166.38 85.0778,166.547 84.5,165.5 Z"/></g>
<g><path style="opacity:1" fill="#2a8db7" d="M 82.5,166.5 C 80.7446,165.928 79.0779,165.094 77.5,164C 75.9926,163.163 75.4926,161.996 76,160.5C 78.6637,161.998 80.8304,163.998 82.5,166.5 Z"/></g>
<g><path style="opacity:1" fill="#2a8db7" d="M 77.5,169.5 C 75.8867,167.73 73.8867,166.564 71.5,166C 72.2752,164.77 73.2752,164.437 74.5,165C 76.1412,166.129 77.1412,167.629 77.5,169.5 Z"/></g>
<g><path style="opacity:1" fill="#fefffe" d="M 32.5,171.5 C 34.9752,171.747 34.9752,172.413 32.5,173.5C 31.537,173.03 31.537,172.363 32.5,171.5 Z"/></g>
<g><path style="opacity:1" fill="#2a8db7" d="M 83.5,173.5 C 84.9063,173.973 85.573,174.973 85.5,176.5C 84.0937,176.027 83.427,175.027 83.5,173.5 Z"/></g>
<g><path style="opacity:1" fill="#fefffe" d="M 40.5,177.5 C 40.7828,176.711 41.2828,176.044 42,175.5C 42.5281,176.816 42.0281,177.483 40.5,177.5 Z"/></g>
<g><path style="opacity:1" fill="#fefffe" d="M 94.5,178.5 C 90.7566,178.541 90.5899,177.874 94,176.5C 94.4643,177.094 94.631,177.761 94.5,178.5 Z"/></g>
<g><path style="opacity:1" fill="#fefffe" d="M 40.5,177.5 C 42.0281,177.483 42.5281,176.816 42,175.5C 41.2828,176.044 40.7828,176.711 40.5,177.5 Z"/></g>
<g><path style="opacity:1" fill="#fefffe" d="M 94.5,178.5 C 95.404,179.209 95.7373,180.209 95.5,181.5C 94.5084,181.328 93.8417,181.662 93.5,182.5C 91.2398,181.762 91.0731,180.762 93,179.5C 94.1068,180.712 94.6068,180.379 94.5,178.5 Z"/></g>
<g><path style="opacity:1" fill="#2a8db7" d="M 142.5,187.5 C 142.56,186.957 142.893,186.624 143.5,186.5C 144.817,188.159 146.483,189.326 148.5,190C 146.072,191.961 143.572,193.794 141,195.5C 137.499,194.332 136.832,192.332 139,189.5C 140.133,191.211 141.633,191.711 143.5,191C 141.884,190.385 140.551,189.385 139.5,188C 141.436,188.666 142.436,188.5 142.5,187.5 Z"/></g>
<g><path style="opacity:1" fill="#2a8db7" d="M 131.5,193.5 C 132.85,194.483 133.85,195.816 134.5,197.5C 135.799,196.91 136.632,195.91 137,194.5C 137.833,195.333 138.667,196.167 139.5,197C 137.385,197.557 135.385,198.391 133.5,199.5C 131.54,197.657 130.873,195.657 131.5,193.5 Z"/></g>
<g><path style="opacity:1" fill="#2a8db7" d="M 127.5,199.5 C 128.606,200.149 129.606,200.483 130.5,200.5C 128.262,203.433 127.262,203.099 127.5,199.5 Z"/></g>
<g><path style="opacity:1" fill="#2a8db7" d="M 122.5,200.5 C 123.309,201.469 124.309,202.302 125.5,203C 122.874,205.029 121.874,204.195 122.5,200.5 Z"/></g>
</svg>
